<svg width="72" height="72" viewBox="0 0 72 72" fill="none" xmlns="http://www.w3.org/2000/svg">
<path d="M34.0124 65.6992L33.9374 65.6242H22.11C18.6526 65.6242 15.2251 64.7992 12.1427 63.2542L11.9102 63.4942L9.84771 61.9342C9.46522 61.6867 9.09772 61.4167 8.73023 61.1467L6.36026 59.3543L6.42776 59.0693C2.34781 54.9443 0.037846 49.4244 0.000346566 43.522C-0.0371529 36.7421 2.97031 30.4047 8.15273 26.1522C9.38272 22.3648 11.3927 18.8248 14.0252 15.8474C19.5526 9.59245 27.51 6 35.8648 6C42.6298 6 50.1297 8.78996 55.2221 13.3124C55.6271 13.6724 56.0246 14.0399 56.4071 14.4224L56.8871 14.8499V14.9099C59.902 18.0448 62.1745 21.8023 63.547 25.9422C68.9169 30.1947 72.0518 36.6746 71.9994 43.5895C71.9019 55.7843 61.9045 65.7067 49.7097 65.7067H34.0124V65.6992ZM49.5672 45.7495C50.8571 45.7495 51.9071 44.6995 51.9071 43.4095C51.9071 42.1195 50.8571 41.0695 49.5672 41.0695H45.0672V35.1221C45.1122 32.7371 44.2422 30.4647 42.6448 28.7397L41.6848 27.9597C40.0798 26.6622 38.1523 25.9572 36.0973 25.9197C37.5298 27.0522 38.8198 28.3647 39.9448 29.8347L42.3373 32.9621L29.6324 45.667H40.3723V45.742H49.5747L49.5672 45.7495ZM21.4051 45.532C21.66 45.622 21.9225 45.6745 22.185 45.6745H25.8225L24.3225 42.3595C24.09 41.842 23.67 41.4295 23.1525 41.1895C22.845 41.047 22.5225 40.9795 22.1925 40.9795C21.2701 40.9795 20.4376 41.5195 20.0551 42.3595C19.5226 43.537 20.0551 44.9245 21.2251 45.457L21.3976 45.532H21.4051Z" fill="white"/>
<path d="M44.4786 24.4662H46.3986L51.8735 18.9913L52.1435 16.6663C41.9511 7.67395 26.3964 8.64144 17.404 18.8338C14.9065 21.6613 13.0915 25.0362 12.1016 28.6737C12.7091 28.4262 13.384 28.3812 14.0215 28.5612L24.9714 26.7537C24.9714 26.7537 25.5264 25.8312 25.8189 25.8912C30.6938 20.5438 38.8912 19.9138 44.5161 24.4662H44.4786Z" fill="#EA4335"/>
<path d="M59.6784 28.672C58.4184 24.0371 55.8385 19.8671 52.246 16.6797L44.5586 24.3671C47.8061 27.022 49.651 31.012 49.576 35.2044V36.5694C53.356 36.5694 56.4159 39.6294 56.4159 43.4093C56.4159 47.1893 53.356 50.2492 49.576 50.2492H35.8962L34.5312 51.6292V59.8341L35.8962 61.1991H49.576C59.4009 61.2741 67.4333 53.3692 67.5083 43.5443C67.5533 37.5894 64.6208 32.002 59.6859 28.6645L59.6784 28.672Z" fill="#4285F4"/>
<path d="M22.1852 61.1234H35.865V50.1736H22.1852C21.2102 50.1736 20.2502 49.9636 19.3577 49.5586L17.4377 50.1511L11.9253 55.626L11.4453 57.546C14.5353 59.8785 18.3077 61.1384 22.1852 61.1234Z" fill="#34A853"/>
<path d="M22.1851 25.5978C12.3602 25.6578 4.44034 33.6677 4.50034 43.5001C4.53034 48.99 7.0953 54.1499 11.4452 57.4949L19.3801 49.56C15.9377 48.0075 14.4077 43.95 15.9602 40.5076C17.5127 37.0651 21.5701 35.5352 25.0126 37.0876C26.5275 37.7701 27.7425 38.9851 28.4325 40.5076L36.3674 32.5727C32.9924 28.1553 27.7425 25.5753 22.1851 25.5978Z" fill="#FBBC05"/>
</svg>
