<svg width="72" height="72" viewBox="0 0 72 72" fill="none" xmlns="http://www.w3.org/2000/svg">
<path d="M48.5097 0.052506V0H29.21V15.1742C15.926 15.1742 7 23.9502 7 37.0017C7 50.0532 15.611 58.0941 30.6352 58.0941C34.1006 58.0941 37.3185 57.8391 41.1139 57.254C40.3263 57.7566 39.3437 58.2892 38.0911 58.8817C34.6557 60.5019 34.6407 65.385 38.076 67.0201L47.6396 71.5657C48.8923 72.1582 50.3475 72.1432 51.5851 71.5282C56.9257 68.8579 59.8435 66.1651 61.9813 61.9796C64.1715 57.8391 64.9141 53.3761 64.9141 44.2851V0.052506H48.5247H48.5097ZM29.2025 40.7522C27.4098 40.5646 26.4947 39.702 26.4947 36.7992C26.4947 33.5363 27.7249 32.7112 29.2025 32.5237V40.7522Z" fill="white"/>
<path d="M33.71 4.5H44.0162V52.1904C38.7281 53.1956 34.8502 53.5931 30.6347 53.5931C18.0557 53.5931 11.5 47.9075 11.5 37.0012C11.5 26.095 18.4608 19.6742 29.232 19.6742C30.9047 19.6742 32.1724 19.8092 33.7175 20.2068V4.5H33.71ZM33.71 28.5027C32.5024 28.1052 31.5048 27.9702 30.2296 27.9702C25.009 27.9702 22.0012 31.1805 22.0012 36.7987C22.0012 42.4168 24.8815 45.2972 30.1621 45.2972C31.3023 45.2972 32.2324 45.2296 33.71 45.0271V28.5027Z" fill="#092E20"/>
<path d="M60.4023 20.4115V44.2942C60.4023 52.5227 59.8023 56.4681 57.9946 59.881C56.3219 63.1589 54.1166 65.2366 49.5636 67.5094L40 62.9639C44.5455 60.8261 46.7583 58.9509 48.1609 56.0706C49.6311 53.1302 50.1037 49.7173 50.1037 40.7538V20.419H60.4023V20.4115ZM50.0962 4.55469H60.3948V15.1234H50.0962V4.55469Z" fill="#092E20"/>
</svg>
