<svg width="72" height="72" viewBox="0 0 72 72" fill="none" xmlns="http://www.w3.org/2000/svg">
<path d="M67.8299 27.8353C65.3774 26.1853 61.7399 26.0052 60.2849 26.0052C59.2873 23.7477 57.6223 21.7002 55.3048 19.8927L55.1773 19.7952L50.3397 16.5551L47.2047 21.2877C46.6722 22.0902 46.2372 22.9752 45.8697 23.9052H41.6771V7H26.1369V15.4526H8.84918V23.9052H0.201562V32.5003H0.0965607L0.00655954 36.8354C-0.0759415 40.9004 0.554067 48.7005 5.69163 55.2706C6.26914 56.0131 6.91415 56.7332 7.59666 57.4157C12.4342 62.2607 19.0418 64.7208 27.2319 64.7283H27.2694C37.087 64.7283 50.2647 60.8057 58.5523 42.633C64.8224 42.063 67.9799 38.6579 69.5475 35.7029C69.7125 35.4104 69.93 34.9679 70.35 34.0904L72 30.6403L67.8224 27.8278L67.8299 27.8353Z" fill="white"/>
<path d="M65.3584 31.511C63.8434 30.491 59.8533 30.056 56.9508 30.836C56.7933 27.9485 55.3007 25.511 52.5782 23.3884L51.5732 22.7134L50.8982 23.7259C49.5782 25.7285 49.0232 28.406 49.2182 30.836C49.3757 32.3361 49.8932 34.0161 50.8982 35.2386C47.1256 37.4286 43.6456 36.9336 28.2329 36.9336H4.44258C4.37508 40.4137 4.93008 47.1037 9.19014 52.5563C9.66265 53.1563 10.1727 53.7413 10.7352 54.3038C14.1927 57.7689 19.4278 60.3114 27.2429 60.3189C39.168 60.3264 49.3907 53.8838 55.6082 38.2911C57.6558 38.3211 63.0558 38.6586 65.6959 33.5511C65.7634 33.4686 66.3709 32.1936 66.3709 32.1936L65.3659 31.5185L65.3584 31.511ZM19.9678 28.331H13.2777V35.0211H19.9678V28.331ZM28.6154 28.331H21.9253V35.0211H28.6154V28.331ZM37.2555 28.331H30.5654V35.0211H37.2555V28.331ZM45.9031 28.331H39.213V35.0211H45.9031V28.331ZM11.3202 28.331H4.63008V35.0211H11.3202V28.331ZM19.9678 19.8784H13.2777V26.5685H19.9678V19.8784ZM28.6154 19.8784H21.9253V26.5685H28.6154V19.8784ZM37.2555 19.8784H30.5654V26.5685H37.2555V19.8784ZM37.2555 11.4258H30.5654V18.1159H37.2555V11.4258Z" fill="#1D63ED"/>
<path d="M65.3584 31.511C63.8434 30.491 59.8533 30.056 56.9508 30.836C56.7933 27.9485 55.3007 25.511 52.5782 23.3884L51.5732 22.7134L50.8982 23.7259C49.5782 25.7285 49.0232 28.406 49.2182 30.836C49.3757 32.3361 49.8932 34.0161 50.8982 35.2386C47.1256 37.4286 43.6456 36.9336 28.2329 36.9336H4.44258C4.37508 40.4137 4.93008 47.1037 9.19014 52.5563C9.66265 53.1563 10.1727 53.7413 10.7352 54.3038C14.1927 57.7689 19.4278 60.3114 27.2429 60.3189C39.168 60.3264 49.3907 53.8838 55.6082 38.2911C57.6558 38.3211 63.0558 38.6586 65.6959 33.5511C65.7634 33.4686 66.3709 32.1936 66.3709 32.1936L65.3659 31.5185L65.3584 31.511ZM19.9678 28.331H13.2777V35.0211H19.9678V28.331ZM28.6154 28.331H21.9253V35.0211H28.6154V28.331ZM37.2555 28.331H30.5654V35.0211H37.2555V28.331ZM45.9031 28.331H39.213V35.0211H45.9031V28.331ZM11.3202 28.331H4.63008V35.0211H11.3202V28.331ZM19.9678 19.8784H13.2777V26.5685H19.9678V19.8784ZM28.6154 19.8784H21.9253V26.5685H28.6154V19.8784ZM37.2555 19.8784H30.5654V26.5685H37.2555V19.8784ZM37.2555 11.4258H30.5654V18.1159H37.2555V11.4258Z" fill="#1D63ED"/>
</svg>
