<svg width="66" height="42" viewBox="0 0 66 42" fill="none" xmlns="http://www.w3.org/2000/svg">
<path d="M18.6396 41.9373C13.4276 41.9373 8.56891 39.9826 5.30035 36.5174C1.67845 32.7857 0.706714 28.0767 0.265018 24.9669C0.265018 24.7003 0.176678 24.4338 0.0883391 24.2561C0.0883391 24.0784 0 23.8118 0 23.6341C0 23.3676 0 23.0122 0 22.7456C0 21.8571 0 20.9686 0 19.9913C0 19.0139 -8.55632e-08 19.3693 0.0883391 19.1028L1.06007 14.216C1.06007 14.1272 1.06007 14.0383 1.06007 13.8606C3.35689 5.68641 10.6007 0 18.7279 0C26.8551 0 26.3251 1.33275 29.5053 3.73171C29.682 3.90941 29.8587 3.99826 30.0353 4.17596C30.0353 4.08711 30.0353 3.90941 30.1237 3.82056C30.6537 2.39895 31.8905 1.33275 33.3922 1.0662C34.2756 0.888502 34.9823 0.799652 35.689 0.799652C37.5442 0.799652 40.2827 1.4216 42.3145 4.35366L47.1731 10.9286L52.0318 4.35366C53.7103 1.9547 55.9187 0.710802 58.4806 0.710802C61.0424 0.710802 60.159 0.799652 61.0424 1.0662C62.4558 1.51045 63.5159 2.57666 63.9576 3.90941C64.3993 5.33101 64.1343 6.84146 63.2509 7.99652L58.8339 13.8606L54.0636 20.169L64.311 33.8519C65.1944 35.007 65.4594 36.6063 64.9293 38.0279C64.3993 39.4495 63.2509 40.5157 61.8375 40.8711C60.9541 41.1376 60.159 41.2265 59.364 41.2265C56.6254 41.2265 54.417 39.9826 52.6502 37.4059L46.9965 29.4983L41.0777 37.4948C39.311 39.9826 37.1025 41.2265 34.5406 41.2265C31.9788 41.2265 32.9505 41.1376 32.1555 40.8711C30.9187 40.5157 29.8587 39.6272 29.3286 38.4721C28.8869 38.8275 28.3569 39.1829 27.8269 39.4495C25.0883 41.0488 21.9081 41.8484 18.5512 41.8484L18.6396 41.9373Z" fill="white"/>
<path d="M60.87 36.6078C58.8382 37.1409 57.5131 36.6078 56.3647 34.9197L48.2375 23.6357L47.0891 22.0364L37.6368 34.9197C36.5767 36.4301 35.4283 37.1409 33.3965 36.6078L45.499 20.2594L34.1916 5.42142C36.135 5.06602 37.4601 5.24372 38.6969 7.02073L47.0891 18.4824L55.5697 7.10958C56.6297 5.59913 57.8665 4.97717 59.81 5.51027L55.393 11.3744L49.4743 19.1932C48.7676 20.0817 48.8559 20.7037 49.4743 21.5922L60.7817 36.6967L60.87 36.6078ZM4.33293 19.9929L5.30466 15.1061C8.04318 5.42143 19.0856 1.33432 26.6828 7.37613C31.1881 10.9301 32.2481 15.9057 32.0714 21.5033H6.89477C6.54141 31.5434 13.6969 37.674 22.8842 34.5643C26.0644 33.4981 28.0078 30.9214 28.9796 27.7228C29.4213 26.1235 30.3047 25.857 31.7181 26.3012C30.923 30.2995 29.2446 33.5869 25.6227 35.6305C20.234 38.7402 12.4601 37.7629 8.39653 33.4092C6.01137 30.9214 4.9513 27.7228 4.50961 24.3465C4.50961 23.8134 4.33293 23.2803 4.15625 22.7472C4.15625 21.8587 4.15625 20.8814 4.15625 19.9929H4.33293ZM6.9831 19.2821H29.6863C29.5096 11.9963 25.0043 6.84303 18.8206 6.75418C12.0184 6.75418 7.15978 11.7298 6.89477 19.2821H6.9831Z" fill="black"/>
</svg>
