<svg width="66" height="42" viewBox="0 0 66 42" fill="none" xmlns="http://www.w3.org/2000/svg">
<path d="M27.3339 40C23.6055 40 20.1298 38.6017 17.7916 36.1229C15.2007 33.4534 14.5056 30.0847 14.1896 27.8602C14.1896 27.6695 14.1264 27.4788 14.0632 27.3517C14.0632 27.2246 14 27.0339 14 26.9068C14 26.7161 14 26.4619 14 26.2712C14 25.6356 14 25 14 24.3008C14 23.6017 14 23.8559 14.0632 23.6653L14.7583 20.1695C14.7583 20.1059 14.7583 20.0424 14.7583 19.9153C16.4014 14.0678 21.5833 10 27.3971 10C33.2109 10 32.8318 10.9534 35.1067 12.6695C35.2331 12.7966 35.3595 12.8602 35.4859 12.9873C35.4859 12.9237 35.4859 12.7966 35.5491 12.7331C35.9283 11.7161 36.813 10.9534 37.8873 10.7627C38.5192 10.6356 39.0247 10.572 39.5303 10.572C40.8574 10.572 42.8164 11.0169 44.2698 13.1144L47.7455 17.8178L51.2212 13.1144C52.4218 11.3983 54.0017 10.5085 55.8343 10.5085C57.6669 10.5085 57.035 10.572 57.6669 10.7627C58.678 11.0805 59.4364 11.8432 59.7523 12.7966C60.0683 13.8136 59.8787 14.8941 59.2468 15.7203L56.0871 19.9153L52.6746 24.428L60.0051 34.2161C60.637 35.0424 60.8266 36.1864 60.4475 37.2034C60.0683 38.2203 59.2468 38.9831 58.2357 39.2373C57.6037 39.428 57.035 39.4915 56.4662 39.4915C54.5072 39.4915 52.9274 38.6017 51.6635 36.7585L47.6191 31.1017L43.3851 36.822C42.1212 38.6017 40.5414 39.4915 38.7088 39.4915C36.8762 39.4915 37.5713 39.428 37.0025 39.2373C36.1178 38.9831 35.3595 38.3475 34.9803 37.5212C34.6644 37.7754 34.2852 38.0297 33.906 38.2203C31.947 39.3644 29.6721 39.9364 27.2707 39.9364L27.3339 40Z" fill="white"/>
<path d="M57.547 36.1866C56.0935 36.568 55.1456 36.1866 54.3241 34.979L48.5103 26.907L47.6888 25.7629L40.927 34.979C40.1687 36.0595 39.3472 36.568 37.8937 36.1866L46.5513 24.4917L38.4625 13.8773C39.8527 13.6231 40.8006 13.7502 41.6853 15.0214L47.6888 23.2205L53.7554 15.0849C54.5137 14.0044 55.3984 13.5595 56.7887 13.9409L53.629 18.1358L49.395 23.729C48.8894 24.3646 48.9526 24.8095 49.395 25.4451L57.4838 36.2502L57.547 36.1866ZM17.1029 24.301L17.7981 20.8053C19.7571 13.8773 27.6563 10.9536 33.091 15.2756C36.3139 17.818 37.0722 21.3773 36.9458 25.3815H18.9356C18.6828 32.5637 23.8015 36.9493 30.3737 34.7247C32.6486 33.962 34.0389 32.1188 34.734 29.8307C35.05 28.6866 35.6819 28.4959 36.693 28.8137C36.1243 31.6739 34.9236 34.0256 32.3327 35.4875C28.4778 37.712 22.9168 37.0129 20.0099 33.8985C18.3036 32.1188 17.5453 29.8307 17.2293 27.4154C17.2293 27.0341 17.103 26.6527 16.9766 26.2714C16.9766 25.6358 16.9766 24.9366 16.9766 24.301H17.1029ZM18.9988 23.7925H35.2396C35.1132 18.5807 31.8903 14.8942 27.4667 14.8307C22.6008 14.8307 19.1252 18.39 18.9356 23.7925H18.9988Z" fill="black"/>
</svg>
