<svg width="72" height="72" viewBox="0 0 72 72" fill="none" xmlns="http://www.w3.org/2000/svg">
<g clip-path="url(#clip0_2633_3062)">
<path d="M12.5938 -2H59.8438C65.6875 -2 70.4375 2.75 70.4375 8.59375V62.4062C70.4375 68.25 65.6875 73 59.8438 73H12.5938C6.75 73 2 68.25 2 62.4062V8.59375C2 2.75 6.75 -2 12.5938 -2Z" fill="white"/>
<path d="M59.8438 2.6875H12.5938C9.32813 2.6875 6.6875 5.32813 6.6875 8.59375V62.4062C6.6875 65.6719 9.32813 68.3125 12.5938 68.3125H59.8438C63.1094 68.3125 65.75 65.6719 65.75 62.4062V8.59375C65.75 5.32813 63.1094 2.6875 59.8438 2.6875Z" fill="url(#paint0_radial_2633_3062)"/>
<path d="M59.8438 2.6875H12.5938C9.32813 2.6875 6.6875 5.32813 6.6875 8.59375V62.4062C6.6875 65.6719 9.32813 68.3125 12.5938 68.3125H59.8438C63.1094 68.3125 65.75 65.6719 65.75 62.4062V8.59375C65.75 5.32813 63.1094 2.6875 59.8438 2.6875Z" fill="url(#paint1_linear_2633_3062)"/>
<path d="M59.8438 2.6875H12.5938C9.32813 2.6875 6.6875 5.32813 6.6875 8.59375V62.4062C6.6875 65.6719 9.32813 68.3125 12.5938 68.3125H59.8438C63.1094 68.3125 65.75 65.6719 65.75 62.4062V8.59375C65.75 5.32813 63.1094 2.6875 59.8438 2.6875Z" fill="url(#paint2_radial_2633_3062)"/>
<path d="M59.8438 2.6875H12.5938C9.32813 2.6875 6.6875 5.32813 6.6875 8.59375V62.4062C6.6875 65.6719 9.32813 68.3125 12.5938 68.3125H59.8438C63.1094 68.3125 65.75 65.6719 65.75 62.4062V8.59375C65.75 5.32813 63.1094 2.6875 59.8438 2.6875Z" fill="url(#paint3_linear_2633_3062)"/>
<path d="M21.4531 58.4727L28.8359 51.9102L21.4531 45.3477V58.4727Z" fill="white"/>
<path d="M48.125 31.8711C46.8047 30.5352 44.375 28.9414 40.3203 28.9414C35.875 28.9414 31.2891 30.0977 28.0156 31.168V12.5352H21.4531V40.9961L26.0859 38.8945C26.1641 38.8633 33.6484 35.5039 40.3203 35.5039C43.6484 35.5039 44.3906 37.3398 44.4219 38.8789V58.4727H50.9844V38.7852C50.9844 38.3633 50.9531 34.7305 48.125 31.8711Z" fill="white"/>
<path d="M39.5 23.1992H46.0625C49.0313 19.832 50.5391 16.2617 50.9844 12.5352H44.4219C43.6953 16.2539 42.0781 19.8164 39.5 23.1992Z" fill="white"/>
</g>
<defs>
<radialGradient id="paint0_radial_2633_3062" cx="0" cy="0" r="1" gradientUnits="userSpaceOnUse" gradientTransform="translate(36.2187 35.5) scale(43.8906 43.8906)">
<stop stop-color="#824EB8"/>
<stop offset="1" stop-color="#5917A3"/>
</radialGradient>
<linearGradient id="paint1_linear_2633_3062" x1="7.10156" y1="64.625" x2="69.6562" y2="2.0625" gradientUnits="userSpaceOnUse">
<stop stop-color="#655DC6" stop-opacity="0.5"/>
<stop offset="1" stop-color="#655DC6" stop-opacity="0"/>
</linearGradient>
<radialGradient id="paint2_radial_2633_3062" cx="0" cy="0" r="1" gradientUnits="userSpaceOnUse" gradientTransform="translate(36.2187 35.5) scale(43.8906 43.8906)">
<stop stop-color="#844DB8"/>
<stop offset="1" stop-color="#5B16A3"/>
</radialGradient>
<linearGradient id="paint3_linear_2633_3062" x1="7.10156" y1="64.625" x2="69.6562" y2="2.0625" gradientUnits="userSpaceOnUse">
<stop stop-color="#7673C0" stop-opacity="0.5"/>
<stop offset="1" stop-color="#7673C0" stop-opacity="0"/>
</linearGradient>
<clipPath id="clip0_2633_3062">
<rect width="72" height="72" fill="white"/>
</clipPath>
</defs>
</svg>
