<svg width="39" height="75" viewBox="0 0 39 75" fill="none" xmlns="http://www.w3.org/2000/svg">
<path d="M19.1462 67.2832C18.1356 67.2832 17.1021 67.0765 16.1146 66.5942C15.9997 66.5253 15.8849 66.4794 15.7701 66.4105C14.5069 65.6296 10.4417 62.4831 6.74409 57.2467C1.98995 50.4944 -0.329699 42.8235 0.0377703 35.0837C0.40524 27.1601 2.54116 20.0174 6.35365 13.8623C9.45417 8.87853 12.8533 5.86987 14.3231 4.58373L14.5987 4.33109C14.5987 4.33109 14.6217 4.33109 14.6447 4.30813C14.6447 4.21626 14.6676 4.07846 14.6906 3.84879C14.8284 1.94254 16.2524 0.380796 18.1356 0.05926C20.0189 -0.262276 21.8792 0.748265 22.6142 2.51671C23.1194 3.68802 23.7166 4.85933 24.3597 5.93877C24.5893 6.26031 25.2324 6.92634 25.8066 7.52348C28.8612 10.6929 34.5569 16.5494 37.5656 29.5487C37.6115 29.7094 37.6345 29.8472 37.6804 30.008C40.8498 48.5652 30.6526 61.1281 24.0611 65.6985C22.7979 66.6401 21.0295 67.3062 19.1691 67.3062L19.1462 67.2832ZM18.549 11.8872C15.1959 15.0336 8.92594 22.1534 8.28287 35.4741C7.66276 48.3356 16.7347 56.6725 19.3988 58.8314C22.4075 56.7184 25.3243 53.1127 27.2075 49.1394C29.7798 43.7422 30.5377 37.8397 29.5272 31.5927C27.0468 20.6835 22.729 16.2049 19.8582 13.2652C19.3988 12.7829 18.9624 12.3465 18.572 11.8872H18.549Z" fill="white"/>
<path d="M18.8743 74.9996C16.7384 74.9996 14.9469 73.369 14.7632 71.256C14.3957 67.3057 13.8675 63.5162 13.8675 63.4703C13.7756 62.8042 13.8445 62.1382 14.0742 61.5181C14.7173 59.7267 14.901 57.7975 15.2225 53.8242C15.3833 51.6653 17.1977 50.0117 19.3336 50.0117C21.4695 50.0117 19.4255 50.0117 19.4714 50.0117C21.6762 50.0806 23.4447 51.872 23.4676 54.0768C23.5136 57.1544 23.927 58.4865 24.1107 58.9458C25.4428 59.9104 26.0859 61.587 25.7184 63.2176C25.0983 65.8818 24.6389 68.6149 24.3404 71.3249C24.1107 73.4149 22.3423 74.9996 20.2293 74.9996H18.8972H18.8743Z" fill="white"/>
<path d="M21.67 66.4111C21.0728 66.4111 20.4987 66.2962 19.9475 66.0206C15.9283 64.1603 15.3082 58.7401 15.2163 54.2157C15.2163 54.0779 15.2163 53.9401 15.2163 53.8252C15.6297 48.1524 15.7675 42.4107 15.5838 36.7149C15.5608 35.9111 15.5608 33.913 15.5378 31.134C15.5149 24.7492 15.446 7.75376 14.9177 5.31927C14.4814 3.25226 15.6756 1.16227 17.6967 0.519202C18.1101 0.381401 18.5465 0.3125 18.9599 0.3125C20.5676 0.3125 22.0834 1.25414 22.7494 2.79292C23.2088 3.84939 23.76 4.90587 24.3571 5.89344C24.5638 6.21498 25.2298 6.88102 25.804 7.47815C28.8816 10.6476 34.6233 16.573 37.609 29.733C37.609 29.8019 37.6319 29.8708 37.6549 29.9397C40.8243 48.4969 30.6041 61.1057 24.0585 65.6302C23.3466 66.1125 22.5427 66.3651 21.7159 66.3651L21.67 66.4111Z" fill="white"/>
<path d="M33.5489 30.6981C30.0349 15.1955 22.7085 11.0615 20.8252 8.14467C20.0444 6.85852 19.3783 5.52645 18.7812 4.14844C18.6893 5.52645 18.5056 6.39919 17.3343 7.4327C14.9917 9.52268 5.00109 17.6759 4.15132 35.2915C3.37044 51.7357 16.2319 61.8641 17.9314 62.8976C19.2405 63.5407 20.8252 62.8976 21.6061 62.3234C27.8072 58.0746 36.2819 46.729 33.5489 30.6981Z" fill="#888888"/>
<path d="M19.3311 54.148C19.0096 58.2131 18.7799 60.5787 17.9531 62.8983C17.9531 62.8983 18.4814 66.7797 18.8718 70.8678H20.2039C20.5254 67.974 21.0077 65.1032 21.6738 62.2782C19.9283 61.4285 19.4 57.7078 19.3311 54.125V54.148Z" fill="#B8C4C2"/>
<path d="M21.671 62.2758C19.9255 61.472 19.4203 57.6595 19.3284 54.1226C19.7648 48.289 19.8796 42.4325 19.7188 36.5759C19.627 33.4984 19.7648 8.16594 18.9609 4.44531C19.5121 5.70849 20.1322 6.92573 20.8442 8.09704C22.7045 11.0138 30.0539 15.1479 33.5678 30.6505C36.3009 46.6584 27.8721 57.958 21.694 62.2528L21.671 62.2758Z" fill="#767676"/>
</svg>
