<svg width="39" height="75" viewBox="0 0 39 75" fill="none" xmlns="http://www.w3.org/2000/svg">
<path d="M21.2958 66.2384C20.5413 66.2384 19.7696 66.084 19.0322 65.7239C18.9465 65.6725 18.8607 65.6382 18.775 65.5867C17.8318 65.0037 14.7965 62.6543 12.0356 58.7444C8.48583 53.7027 6.75382 47.975 7.0282 42.1959C7.30258 36.2797 8.8974 30.9464 11.7441 26.3506C14.0591 22.6293 16.5971 20.3829 17.6946 19.4225L17.9004 19.2339C17.9004 19.2339 17.9175 19.2339 17.9347 19.2167C17.9347 19.1482 17.9518 19.0453 17.969 18.8738C18.0719 17.4504 19.1351 16.2843 20.5413 16.0442C21.9475 15.8042 23.3365 16.5587 23.8852 17.8792C24.2625 18.7537 24.7084 19.6283 25.1885 20.4343C25.36 20.6744 25.8402 21.1717 26.2689 21.6176C28.5497 23.9841 32.8025 28.357 35.049 38.0631C35.0833 38.1832 35.1004 38.2861 35.1347 38.4061C37.5012 52.2622 29.8872 61.6425 24.9656 65.0551C24.0224 65.7582 22.702 66.2555 21.313 66.2555L21.2958 66.2384ZM20.85 24.8758C18.3463 27.2252 13.6647 32.5413 13.1845 42.4875C12.7215 52.0907 19.4952 58.3157 21.4844 59.9277C23.7309 58.35 25.9088 55.6576 27.315 52.6909C29.2356 48.661 29.8015 44.2538 29.047 39.5894C27.1949 31.4437 23.971 28.0998 21.8274 25.9047C21.4844 25.5446 21.1586 25.2188 20.8671 24.8758H20.85Z" fill="white"/>
<path d="M21.0959 72.0015C19.5011 72.0015 18.1635 70.7839 18.0263 69.2063C17.7519 66.2567 17.3575 63.4272 17.3575 63.3929C17.2889 62.8955 17.3404 62.3982 17.5119 61.9352C17.992 60.5976 18.1292 59.1571 18.3693 56.1904C18.4893 54.5785 19.8441 53.3438 21.4389 53.3438C23.0337 53.3438 21.5075 53.3438 21.5418 53.3438C23.188 53.3952 24.5085 54.7328 24.5256 56.3791C24.5599 58.677 24.8686 59.6716 25.0058 60.0146C26.0004 60.7348 26.4806 61.9867 26.2062 63.2042C25.7432 65.1935 25.4002 67.2342 25.1773 69.2577C25.0058 70.8182 23.6853 72.0015 22.1077 72.0015H21.1131H21.0959Z" fill="white"/>
<path d="M23.1789 65.5882C22.733 65.5882 22.3043 65.5025 21.8928 65.2967C18.8918 63.9076 18.4287 59.8606 18.3602 56.4823C18.3602 56.3794 18.3602 56.2765 18.3602 56.1907C18.6688 51.955 18.7717 47.6679 18.6345 43.415C18.6174 42.8148 18.6174 41.3229 18.6002 39.2479C18.5831 34.4805 18.5316 21.7905 18.1372 19.9728C17.8114 18.4294 18.7031 16.8689 20.2122 16.3887C20.5209 16.2858 20.8467 16.2344 21.1554 16.2344C22.3558 16.2344 23.4876 16.9375 23.9849 18.0864C24.3279 18.8753 24.7394 19.6641 25.1853 20.4015C25.3396 20.6416 25.8369 21.1389 26.2656 21.5848C28.5636 23.9513 32.8507 28.3756 35.08 38.2018C35.08 38.2532 35.0972 38.3047 35.1143 38.3561C37.4808 52.2123 29.8497 61.6269 24.9624 65.0052C24.4307 65.3653 23.8305 65.5539 23.2132 65.5539L23.1789 65.5882Z" fill="white"/>
<path d="M32.046 38.9215C29.4222 27.3462 23.9518 24.2594 22.5457 22.0815C21.9626 21.1212 21.4653 20.1266 21.0194 19.0977C20.9508 20.1266 20.8137 20.7782 19.9391 21.5499C18.1899 23.1104 10.7303 29.1982 10.0958 42.3512C9.51274 54.6297 19.1159 62.1922 20.3849 62.9639C21.3624 63.4441 22.5457 62.9639 23.1287 62.5352C27.7588 59.3627 34.0866 50.8913 32.046 38.9215Z" fill="#10AA50"/>
<path d="M21.4352 56.4312C21.1951 59.4665 21.0236 61.2328 20.4062 62.9648C20.4062 62.9648 20.8007 65.863 21.0922 68.9154H22.0868C22.3269 66.7547 22.687 64.6111 23.1843 62.5018C21.881 61.8673 21.4866 59.0893 21.4352 56.4141V56.4312Z" fill="#B8C4C2"/>
<path d="M23.1798 62.5006C21.8765 61.9004 21.4992 59.0537 21.4306 56.4129C21.7564 52.0571 21.8422 47.6842 21.7222 43.3113C21.6536 41.0134 21.7565 22.0984 21.1562 19.3203C21.5678 20.2635 22.0308 21.1724 22.5624 22.0469C23.9515 24.2248 29.439 27.3116 32.0627 38.8869C34.1034 50.8395 27.8099 59.2767 23.1969 62.4835L23.1798 62.5006Z" fill="#12924F"/>
</svg>
