<svg width="68" height="75" viewBox="0 0 68 75" fill="none" xmlns="http://www.w3.org/2000/svg">
<path d="M8.4583 61.9825L28.8133 73.6688L61.2985 55.8582V24.9114L34.4642 9.37891L6.32812 25.5032L8.4583 61.9825Z" fill="white"/>
<path d="M33.8166 75C32.1598 75 30.5621 74.5858 29.0533 73.7574C28.9941 73.7278 28.9349 73.6982 28.8757 73.6686L20.9172 68.9349C19.1716 67.9586 18.4024 66.716 18.0473 65.6213C16.3609 65.5325 14.6154 65.1775 11.5089 63.6686C11.4201 63.6391 11.3314 63.5799 11.2426 63.5207L4.91124 59.9112C1.86391 58.1657 0 54.9112 0 51.4201V23.6686C0 20.1775 1.86391 16.9231 4.88166 15.1775C4.88166 15.1775 28.9349 1.27219 28.9349 1.2426C30.3846 0.443787 32.0414 0 33.787 0C35.5325 0 37.1894 0.414201 38.6391 1.2426L62.6923 15.1775C65.7101 16.9231 67.574 20.1775 67.574 23.6686V51.4201C67.574 54.9112 65.7101 58.1657 62.6923 59.9112L38.6982 73.8166C38.5799 73.8757 38.432 73.9645 38.3136 74.0237C36.9231 74.6746 35.355 75 33.8166 75ZM33.787 60.6805L41.9527 55.9467C41.716 55.9467 41.4497 55.9467 41.213 55.9467C37.1006 55.9467 33.6686 55.2959 30.9467 53.9645C30.8876 55.5917 30.5917 57.1302 30.0888 58.4615L33.787 60.6509V60.6805ZM16.9822 50.9763V26.0651C16.9822 25.2663 17.1598 24.497 17.4852 23.787L13.7574 25.9467V49.1124L16.9822 50.9763ZM25.503 20.5917C27.1894 20.5917 28.6982 21.3609 29.6746 22.5444C32.1302 20.858 35.5917 19.7337 40.2959 19.7337C45 19.7337 42.3077 19.7633 43.2544 19.8521L33.7574 14.3787L23.0178 20.5621H25.5325L25.503 20.5917Z" fill="white"/>
<path d="M33.8172 70.2663C32.9001 70.2663 32.0717 70.0297 31.3024 69.6155L23.3143 64.8521C22.1012 64.2013 22.7225 63.935 23.0776 63.8166C24.7048 63.2841 25.0006 63.1658 26.687 62.1894C26.8646 62.0711 27.1012 62.1303 27.2788 62.2486L33.403 65.9172C33.6397 66.0356 33.9356 66.0356 34.1131 65.9172L58.1072 52.0119C58.3438 51.8936 58.4622 51.6569 58.4622 51.361V23.6095C58.4622 23.3137 58.3438 23.077 58.1072 22.9587L34.1131 9.14208C33.8764 9.02374 33.5805 9.02374 33.403 9.14208L9.37935 22.9882C9.14266 23.1066 9.02432 23.4024 9.02432 23.6391V51.3906C9.02432 51.6273 9.14266 51.9231 9.37935 52.0415L15.9474 55.8285C19.4977 57.6332 21.7166 55.5326 21.7166 53.432V26.0652C21.7166 25.7101 22.0125 25.3551 22.4267 25.3551H25.5036C25.8586 25.3551 26.2137 25.651 26.2137 26.0652V53.432C26.2137 58.1953 23.6397 60.9468 19.1131 60.9468C14.5864 60.9468 16.6575 60.9468 13.5805 59.4379L7.24917 55.8285C5.68112 54.9113 4.73438 53.2545 4.73438 51.4498V23.6983C4.73438 21.8936 5.71071 20.2072 7.24917 19.3196L31.2728 5.41427C32.7817 4.58587 34.8231 4.58587 36.332 5.41427L60.3261 19.3196C61.8941 20.2368 62.8409 21.8936 62.8409 23.6983V51.4498C62.8409 53.2545 61.8646 54.9409 60.3261 55.8285L36.332 69.7338C35.5628 70.0888 34.6456 70.2663 33.8172 70.2663ZM41.2137 51.2131C30.6811 51.2131 28.5214 46.3906 28.5214 42.3078C28.5214 41.5 28.8172 41.5977 29.2314 41.5977H32.3675C32.7225 41.5977 33.0184 41.8344 33.0184 42.1894C33.4918 45.3847 34.8823 46.9527 41.2728 46.9527C47.6634 46.9527 48.4918 45.7989 48.4918 43.1066C48.4918 40.4143 47.9001 40.3847 40.0006 39.6155C33.4326 38.9646 29.3498 37.5149 29.3498 32.2782C29.3498 27.0415 33.4326 24.5267 40.2965 24.5267C47.1604 24.5267 51.7758 27.1598 52.2788 32.9586C52.2788 33.1362 52.2196 33.3137 52.1012 33.4912C51.9829 33.6095 51.8054 33.7279 51.6279 33.7279H48.4918C48.1959 33.7279 47.9001 33.4912 47.8409 33.1953C47.1308 29.8817 45.2669 28.8166 40.3261 28.8166C35.3853 28.8166 34.1427 30.7397 34.1427 32.1894C34.1427 33.6391 34.9119 34.4675 42.3971 35.4439C49.7935 36.4202 53.2847 37.7811 53.2847 42.9586C53.2255 48.2545 48.906 51.2723 41.2433 51.2723L41.2137 51.2131Z" fill="#539E43"/>
</svg>
