<svg width="68" height="75" viewBox="0 0 68 75" fill="none" xmlns="http://www.w3.org/2000/svg">
<path d="M18.3171 61.2812L33.5155 70.0071L57.7711 56.7084V33.6015L37.7348 22.0039L16.7266 34.0434L18.3171 61.2812Z" fill="white"/>
<path d="M37.2497 71C36.0126 71 34.8197 70.6907 33.6931 70.0722C33.6489 70.0501 33.6047 70.028 33.5606 70.0059L27.6181 66.4714C26.3148 65.7424 25.7404 64.8146 25.4753 63.9972C24.2162 63.931 22.9128 63.6659 20.5933 62.5393C20.527 62.5172 20.4607 62.473 20.3945 62.4288L15.6671 59.7337C13.3917 58.4304 12 56.0004 12 53.3937V32.6726C12 30.0659 13.3917 27.6359 15.645 26.3325C15.645 26.3325 33.6047 15.9499 33.6047 15.9278C34.6872 15.3314 35.9243 15 37.2276 15C38.531 15 39.768 15.3093 40.8505 15.9278L58.8103 26.3325C61.0635 27.6359 62.4552 30.0659 62.4552 32.6726V53.3937C62.4552 56.0004 61.0635 58.4304 58.8103 59.7337L40.8947 70.1164C40.8063 70.1606 40.6959 70.2268 40.6075 70.271C39.5692 70.757 38.3984 71 37.2497 71ZM37.2276 60.3081L43.3247 56.7736C43.1479 56.7736 42.9491 56.7736 42.7724 56.7736C39.7018 56.7736 37.1393 56.2876 35.1069 55.2935C35.0627 56.5085 34.8418 57.6572 34.4663 58.6513L37.2276 60.286V60.3081ZM24.6801 53.0623V34.4619C24.6801 33.8655 24.8126 33.2911 25.0556 32.7609L22.2722 34.3736V51.6706L24.6801 53.0623ZM31.0422 30.3751C32.3014 30.3751 33.428 30.9495 34.157 31.8331C35.9905 30.574 38.5751 29.7345 42.0876 29.7345C45.6 29.7345 43.5897 29.7566 44.2966 29.8229L37.2055 25.7361L29.1866 30.3531H31.0643L31.0422 30.3751Z" fill="white"/>
<path d="M37.2543 67.4688C36.5694 67.4688 35.9509 67.2921 35.3765 66.9828L29.412 63.4262C28.5063 62.9402 28.9702 62.7414 29.2353 62.653C30.4503 62.2554 30.6712 62.167 31.9304 61.438C32.0629 61.3497 32.2397 61.3939 32.3722 61.4822L36.945 64.2215C37.1217 64.3098 37.3426 64.3098 37.4752 64.2215L55.3907 53.8388C55.5675 53.7505 55.6558 53.5737 55.6558 53.3528V32.6317C55.6558 32.4108 55.5675 32.2341 55.3907 32.1457L37.4752 21.8294C37.2984 21.741 37.0775 21.741 36.945 21.8294L19.0073 32.1678C18.8306 32.2562 18.7422 32.4771 18.7422 32.6538V53.3749C18.7422 53.5517 18.8306 53.7726 19.0073 53.8609L23.9114 56.6885C26.5623 58.0361 28.2191 56.4676 28.2191 54.8992V34.4653C28.2191 34.2002 28.44 33.9351 28.7493 33.9351H31.0468C31.3118 33.9351 31.5769 34.156 31.5769 34.4653V54.8992C31.5769 58.4558 29.655 60.5102 26.2752 60.5102C22.8953 60.5102 24.4416 60.5102 22.1442 59.3836L17.4168 56.6885C16.246 56.0037 15.5391 54.7666 15.5391 53.4191V32.698C15.5391 31.3505 16.2681 30.0913 17.4168 29.4286L35.3544 19.0459C36.4811 18.4274 38.0053 18.4274 39.132 19.0459L57.0475 29.4286C58.2184 30.1134 58.9253 31.3505 58.9253 32.698V53.4191C58.9253 54.7666 58.1963 56.0258 57.0475 56.6885L39.132 67.0712C38.5576 67.3363 37.8728 67.4688 37.2543 67.4688ZM42.7769 53.2424C34.9126 53.2424 33.3 49.6416 33.3 46.5931C33.3 45.9899 33.5209 46.0629 33.8302 46.0629H36.1718C36.4369 46.0629 36.6578 46.2396 36.6578 46.5047C37.0113 48.8905 38.0495 50.0613 42.8211 50.0613C47.5927 50.0613 48.2113 49.1998 48.2113 47.1895C48.2113 45.1793 47.7694 45.1572 41.8712 44.5828C36.9671 44.0968 33.9186 43.0144 33.9186 39.1043C33.9186 35.1943 36.9671 33.3165 42.0921 33.3165C47.2172 33.3165 50.6633 35.2826 51.0389 39.6124C51.0389 39.7449 50.9947 39.8775 50.9063 40.01C50.818 40.0984 50.6854 40.1868 50.5529 40.1868H48.2113C47.9903 40.1868 47.7694 40.01 47.7253 39.7891C47.1951 37.315 45.8034 36.5197 42.1142 36.5197C38.4251 36.5197 37.4972 37.9556 37.4972 39.038C37.4972 40.1205 38.0716 40.739 43.6606 41.468C49.1832 42.197 51.79 43.2132 51.79 47.0791C51.7458 51.0333 48.5205 53.2866 42.799 53.2866L42.7769 53.2424Z" fill="#539E43"/>
</svg>
