<svg width="75" height="74" viewBox="0 0 75 74" fill="none" xmlns="http://www.w3.org/2000/svg">
<path d="M59.0278 0H15.9722C7.15101 0 0 7.15101 0 15.9722V57.3611C0 66.1823 7.15101 73.3333 15.9722 73.3333H59.0278C67.849 73.3333 75 66.1823 75 57.3611V15.9722C75 7.15101 67.849 0 59.0278 0Z" fill="white"/>
<path d="M16.6584 5H59.1775C65.6239 5 70.8359 10.212 70.8359 16.6584V57.5316C70.8359 63.978 65.6239 69.19 59.1775 69.19H16.6584C10.212 69.19 5 63.978 5 57.5316V16.6584C5 10.212 10.212 5 16.6584 5Z" fill="#001E36"/>
<path d="M19.8125 50.0136V21.7865C19.8125 21.5945 19.8948 21.4847 20.0868 21.4847C20.5532 21.4847 20.9921 21.4847 21.623 21.4847C22.2813 21.4847 22.9671 21.4847 23.7078 21.4299C24.4484 21.4299 25.244 21.4299 26.0943 21.375C26.9447 21.375 27.7677 21.375 28.5906 21.375C30.84 21.375 32.7054 21.6493 34.2415 22.2254C35.6131 22.6917 36.875 23.4598 37.9174 24.4748C38.7952 25.3526 39.481 26.4224 39.9199 27.602C40.3314 28.7541 40.5508 29.9337 40.5508 31.1681C40.5508 33.5272 40.0022 35.4749 38.9049 37.011C37.8077 38.5472 36.2715 39.6993 34.4884 40.3577C32.6231 41.0435 30.5657 41.2904 28.3163 41.2904C26.0669 41.2904 27.219 41.2904 26.9447 41.2629C26.6704 41.2355 26.2864 41.2355 25.7652 41.2355V50.0411C25.7652 50.2331 25.6554 50.3977 25.4634 50.4251H20.1417C19.9222 50.4251 19.8125 50.3154 19.8125 50.0685V50.0136ZM25.7926 26.779V35.9961C26.1766 35.9961 26.5333 36.0509 26.8624 36.0509H28.3163C29.3861 36.0509 30.456 35.8863 31.4709 35.5572C32.3488 35.3103 33.1168 34.7891 33.7203 34.1033C34.2964 33.4175 34.5707 32.4848 34.5707 31.2778C34.5707 30.4274 34.3787 29.5771 33.9398 28.8364C33.4735 28.1232 32.8151 27.5746 32.0196 27.2728C31.0046 26.8613 29.9073 26.6967 28.7826 26.7242C28.0694 26.7242 27.4385 26.7242 26.9173 26.7242C26.3687 26.7242 25.9846 26.7242 25.7926 26.7516V26.779Z" fill="#31A8FF"/>
<path d="M57.67 34.3246C56.8471 33.8856 55.9693 33.5839 55.0366 33.3919C54.0216 33.1724 53.0066 33.0353 51.9642 33.0353C51.4156 33.0353 50.8395 33.0901 50.3183 33.2273C49.9617 33.3096 49.66 33.5016 49.468 33.7759C49.3308 33.9954 49.2485 34.2697 49.2485 34.5166C49.2485 34.7635 49.3582 35.0103 49.5228 35.2298C49.7697 35.5315 50.0989 35.7784 50.4555 35.9704C51.0864 36.2996 51.7448 36.6014 52.4032 36.8757C53.8845 37.3695 55.3109 38.0553 56.6276 38.8782C57.5329 39.4543 58.2735 40.2224 58.7947 41.155C59.2336 42.0328 59.4531 42.993 59.4257 43.9805C59.4531 45.2698 59.069 46.5591 58.3558 47.6289C57.5877 48.7262 56.5179 49.5765 55.2835 50.0703C53.9393 50.6464 52.2934 50.9481 50.3183 50.9481C48.3433 50.9481 47.8221 50.8384 46.5876 50.5915C45.6275 50.4269 44.6674 50.1252 43.7896 49.7137C43.5976 49.604 43.4604 49.412 43.4879 49.1925V44.4194C43.4879 44.3371 43.5153 44.2274 43.5976 44.1725C43.6799 44.1176 43.7622 44.1451 43.8445 44.1999C44.9143 44.8309 46.039 45.2698 47.246 45.5441C48.2884 45.8184 49.3857 45.9556 50.4829 45.9556C51.5802 45.9556 52.266 45.8184 52.7598 45.5715C53.1987 45.3795 53.5004 44.9132 53.5004 44.4194C53.5004 43.9256 53.281 43.6787 52.8421 43.3221C52.4032 42.9655 51.4979 42.554 50.1538 42.0328C48.7547 41.5391 47.4655 40.8807 46.2585 40.0578C45.4081 39.4543 44.6949 38.6588 44.1737 37.7261C43.7348 36.8483 43.5153 35.8882 43.5427 34.928C43.5427 33.7485 43.8719 32.6238 44.4754 31.6088C45.1612 30.5116 46.1762 29.6337 47.3557 29.0851C48.645 28.4267 50.2635 28.125 52.2111 28.125C54.1588 28.125 54.488 28.2073 55.6127 28.3719C56.4356 28.4816 57.2311 28.7011 57.9718 29.0028C58.0815 29.0028 58.1912 29.14 58.2461 29.2497C58.2735 29.3594 58.301 29.4691 58.301 29.5789V34.0502C58.301 34.16 58.2461 34.2697 58.1638 34.3246C57.9169 34.3794 57.7798 34.3794 57.67 34.3246Z" fill="#31A8FF"/>
</svg>
