<svg width="75" height="74" viewBox="0 0 75 74" fill="none" xmlns="http://www.w3.org/2000/svg">
<g clip-path="url(#clip0_58072_3125)">
<path d="M57.8611 13H25.1389C18.4348 13 13 18.4608 13 25.197V56.803C13 63.5392 18.4348 69 25.1389 69H57.8611C64.5652 69 70 63.5392 70 56.803V25.197C70 18.4608 64.5652 13 57.8611 13Z" fill="white"/>
<path d="M25.6573 16.8203H57.9718C62.8711 16.8203 66.8322 20.8004 66.8322 25.7231V56.9353C66.8322 61.8581 62.8711 65.8382 57.9718 65.8382H25.6573C20.758 65.8382 16.7969 61.8581 16.7969 56.9353V25.7231C16.7969 20.8004 20.758 16.8203 25.6573 16.8203Z" fill="#001E36"/>
<path d="M28.0547 51.1937V29.6384C28.0547 29.4918 28.1172 29.408 28.2632 29.408C28.6176 29.408 28.9512 29.408 29.4307 29.408C29.931 29.408 30.4522 29.408 31.0151 29.3661C31.578 29.3661 32.1826 29.3661 32.8289 29.3242C33.4752 29.3242 34.1006 29.3242 34.7261 29.3242C36.4356 29.3242 37.8533 29.5337 39.0208 29.9736C40.0632 30.3297 41.0222 30.9163 41.8144 31.6913C42.4815 32.3617 43.0027 33.1786 43.3363 34.0794C43.649 34.9592 43.8158 35.8599 43.8158 36.8026C43.8158 38.6041 43.3989 40.0914 42.5649 41.2645C41.731 42.4375 40.5635 43.3173 39.2084 43.8201C37.7907 44.3438 36.2271 44.5323 34.5176 44.5323C32.808 44.5323 33.6837 44.5323 33.4752 44.5114C33.2667 44.4904 32.9748 44.4904 32.5787 44.4904V51.2147C32.5787 51.3613 32.4953 51.487 32.3494 51.5079H28.3049C28.1381 51.5079 28.0547 51.4241 28.0547 51.2356V51.1937ZM32.5996 33.4509V40.4894C32.8914 40.4894 33.1625 40.5313 33.4126 40.5313H34.5176C35.3307 40.5313 36.1437 40.4056 36.9151 40.1542C37.5822 39.9657 38.166 39.5677 38.6246 39.044C39.0625 38.5203 39.2709 37.8081 39.2709 36.8864C39.2709 36.237 39.125 35.5876 38.7914 35.022C38.437 34.4774 37.9367 34.0584 37.3321 33.828C36.5607 33.5138 35.7268 33.3881 34.872 33.409C34.33 33.409 33.8504 33.409 33.4543 33.409C33.0374 33.409 32.7455 33.409 32.5996 33.43V33.4509Z" fill="#31A8FF"/>
<path d="M56.828 39.2108C56.2025 38.8756 55.5354 38.6452 54.8266 38.4985C54.0552 38.331 53.2838 38.2262 52.4916 38.2262C52.0746 38.2262 51.6368 38.2681 51.2407 38.3729C50.9697 38.4357 50.7403 38.5823 50.5944 38.7918C50.4902 38.9594 50.4276 39.1689 50.4276 39.3574C50.4276 39.5459 50.511 39.7345 50.6361 39.902C50.8237 40.1325 51.0739 40.321 51.3449 40.4676C51.8244 40.719 52.3248 40.9494 52.8251 41.1589C53.9509 41.536 55.035 42.0597 56.0357 42.6881C56.7237 43.128 57.2866 43.7145 57.6827 44.4268C58.0163 45.0971 58.1831 45.8303 58.1622 46.5844C58.1831 47.5689 57.8912 48.5535 57.3492 49.3704C56.7654 50.2084 55.9524 50.8577 55.0142 51.2348C53.9926 51.6747 52.7418 51.9051 51.2407 51.9051C49.7396 51.9051 49.3435 51.8213 48.4054 51.6328C47.6757 51.5071 46.946 51.2767 46.2789 50.9625C46.1329 50.8787 46.0287 50.7321 46.0495 50.5645V46.9196C46.0495 46.8567 46.0704 46.7729 46.1329 46.731C46.1955 46.6891 46.258 46.7101 46.3206 46.752C47.1336 47.2338 47.9884 47.5689 48.9057 47.7784C49.6979 47.9879 50.5319 48.0926 51.3658 48.0926C52.1997 48.0926 52.7209 47.9879 53.0962 47.7994C53.4297 47.6527 53.6591 47.2966 53.6591 46.9196C53.6591 46.5425 53.4923 46.354 53.1587 46.0816C52.8251 45.8093 52.1372 45.4951 51.1156 45.0971C50.0524 44.72 49.0725 44.2173 48.1552 43.5889C47.5089 43.128 46.9668 42.5205 46.5707 41.8083C46.2372 41.138 46.0704 40.4048 46.0912 39.6716C46.0912 38.7709 46.3414 37.912 46.8001 37.1369C47.3213 36.299 48.0926 35.6287 48.9891 35.2097C49.969 34.707 51.199 34.4766 52.6792 34.4766C54.1594 34.4766 54.4096 34.5394 55.2644 34.6651C55.8898 34.7489 56.4944 34.9165 57.0573 35.1469C57.1407 35.1469 57.2241 35.2516 57.2658 35.3354C57.2866 35.4192 57.3075 35.503 57.3075 35.5868V39.0013C57.3075 39.0851 57.2658 39.1689 57.2032 39.2108C57.0156 39.2527 56.9114 39.2527 56.828 39.2108Z" fill="#31A8FF"/>
</g>
<defs>
<clipPath id="clip0_58072_3125">
<rect width="57" height="56" fill="white" transform="translate(13 13)"/>
</clipPath>
</defs>
</svg>
