<svg width="72" height="72" viewBox="0 0 72 72" fill="none" xmlns="http://www.w3.org/2000/svg">
<path d="M65.5734 40.0467C65.2959 40.0467 65.0109 40.0692 64.7258 40.1292C64.7033 40.1292 64.6358 40.1442 64.6133 40.1517C63.7057 40.3392 62.8957 40.4592 62.1531 40.5342C68.7463 28.9755 72.8192 13.6589 68.4612 8.10084C64.4483 2.96281 58.6052 0.165017 51.562 0C51.352 0 51.1419 0 50.9394 0C48.9067 0 46.8365 0.217523 44.7813 0.645067C44.1137 0.787582 43.5061 1.07261 42.9886 1.47015C41.3009 1.05011 39.4707 0.787582 37.468 0.757579H37.1155C33.9652 0.757579 31.0999 1.48515 28.6321 2.8653C28.5946 2.8503 28.5646 2.8353 28.5271 2.82029C25.8568 1.9502 21.7764 0.907595 17.5159 0.907595C13.2555 0.907595 10.0002 1.8752 7.30737 3.78789C2.7619 7.00573 0.661683 12.5413 1.04422 20.2371C1.17174 22.7124 2.47687 29.8681 4.61459 36.8738C8.60501 49.9402 12.4229 52.573 14.9507 53.4206C15.3857 53.5631 16.0758 53.7581 16.9759 53.7581C18.056 53.7581 19.5336 53.4656 21.0863 52.3104C21.3188 52.5655 21.5814 52.8055 21.8739 53.0005C22.6615 53.5331 23.6441 53.9681 24.6342 54.2156C25.9168 54.5382 27.1844 54.6957 28.3996 54.6957C29.7347 54.6957 31.0098 54.4782 32.2025 54.0881C32.27 58.4461 32.5475 63.1341 33.3351 65.0993C35.1653 69.6748 38.2781 72 42.576 72C43.4686 72 44.4212 71.895 45.4038 71.685C51.4345 70.3948 54.3073 67.4545 55.3274 61.5364C55.6799 59.4737 56.2275 55.2433 56.625 51.8754C56.805 51.8754 56.9775 51.8904 57.1651 51.8904C57.4501 51.8904 57.7501 51.8904 58.0727 51.8679C60.4954 51.7554 62.9482 51.2228 64.6283 50.4428C66.601 49.5277 67.8912 48.5151 68.6263 47.8325C70.0889 46.4673 70.4715 44.2921 69.5639 42.5069C68.7838 40.9768 67.2236 40.0467 65.5509 40.0467H65.5734Z" fill="white"/>
<path d="M30.506 41.916C30.7236 41.0384 31.0686 40.1158 31.4361 39.1182L31.5862 38.7282C31.7737 38.2181 31.9987 37.7305 32.2312 37.2055C33.3713 34.6777 34.7815 31.5349 33.1538 23.9891C32.8388 22.534 32.0812 21.6864 30.8361 21.4013C28.1133 20.7788 24.2879 22.8265 23.4628 23.5541C23.4628 23.7191 23.4853 23.9291 23.5003 24.1691C23.5978 25.8793 23.7928 29.0521 23.2828 32.705C22.9152 35.3078 23.7178 37.8506 25.4655 39.6808C26.8457 41.1209 28.6533 41.916 30.5135 41.916H30.506ZM28.8334 22.6765C29.1634 22.429 29.816 22.3314 30.536 22.4365C31.4211 22.5565 32.3287 22.9765 32.2387 23.6066C32.1712 24.1091 31.3761 24.7842 30.506 24.7842C30.431 24.7842 30.356 24.7842 30.281 24.7692C29.756 24.6942 29.2309 24.3642 28.8709 23.8916C28.7434 23.7191 28.5333 23.3966 28.5783 23.0965C28.5933 22.984 28.6533 22.819 28.8334 22.684V22.6765Z" fill="#336791"/>
<path d="M55.5824 42.2797C55.4399 42.0772 55.2524 41.8372 55.0573 41.5971C54.4198 40.8021 53.5572 39.722 52.8821 38.0943C52.7771 37.8468 52.4546 37.2617 52.0795 36.5866C50.0168 32.8962 45.7339 25.2079 48.5017 21.2475C49.7768 19.4248 52.2896 18.6973 55.9799 19.0723C55.4924 17.6171 54.2623 14.9094 51.9895 12.2241C49.3568 9.11126 44.6838 5.36837 37.393 5.24836C33.6951 5.18835 30.6573 6.32097 28.3846 8.62371C24.7617 12.2766 23.7941 18.0447 23.5391 21.1275C23.7116 21.03 23.8841 20.94 24.0866 20.835C25.0017 20.3699 26.8469 19.5598 28.8571 19.3498C32.21 19.0048 34.4227 20.4974 35.0828 23.5653C36.8529 31.7486 35.2253 35.364 34.0327 38.0118C33.8151 38.4993 33.6051 38.9644 33.4401 39.4069L33.2901 39.8045C32.9375 40.7496 32.6225 41.6121 32.435 42.3847C33.3126 42.1597 34.0402 42.4672 34.4302 42.6248C35.4278 43.0373 36.2604 44.0424 36.6054 45.235C36.6504 45.4 36.6729 45.5651 36.6954 45.7301C36.7479 45.8501 36.7704 45.9851 36.7704 46.1276C36.5379 54.341 36.8679 61.7817 37.5205 63.4244C38.5406 65.9822 40.0933 68.2174 44.4737 67.2723C48.6967 66.3647 50.2043 64.8421 50.9019 60.7616C51.4345 57.6563 52.4921 48.8579 52.6346 47.0352C52.4621 43.3298 54.4648 42.5797 55.5749 42.2647L55.5824 42.2797Z" fill="#336791"/>
<path d="M65.5248 44.5632C61.4594 45.4033 58.5791 45.2833 56.9664 44.2181C56.8689 44.1506 56.7714 44.0831 56.6889 44.0156C56.5539 44.0606 56.4114 44.1056 56.2688 44.1431C55.3538 44.3982 54.4912 44.6457 54.6037 46.9634C54.8437 47.1585 55.8638 47.481 57.874 47.3835C59.6892 47.301 61.6094 46.9034 62.7495 46.3709C64.0772 45.7558 65.0148 45.0657 65.5623 44.5557C65.5473 44.5557 65.5323 44.5557 65.5173 44.5632H65.5248Z" fill="#336791"/>
<path d="M24.0215 41.0505C21.8463 38.7853 20.8562 35.6424 21.3063 32.4321C21.7863 28.9742 21.6063 25.9289 21.5088 24.2862C21.4863 23.8437 21.4638 23.5287 21.4638 23.3036C21.4563 22.8836 21.2613 13.0051 26.9618 7.24447C27.0144 7.19196 27.0669 7.15446 27.1194 7.10195C23.684 5.98433 15.1106 3.7641 9.89757 7.46199C6.69474 9.73472 5.22459 13.9577 5.53212 20.0183C5.62963 21.931 6.83725 28.7717 8.91497 35.5674C11.3152 43.4207 14.0305 48.3788 16.3782 49.1588C16.7383 49.2788 17.8334 49.6464 19.4161 47.7412C21.6588 45.0484 23.759 42.7532 24.7266 41.7181C24.4866 41.508 24.2466 41.2905 24.0215 41.058V41.0505Z" fill="#336791"/>
<path d="M45.6953 5.0498C49.1307 6.56495 51.6509 8.80769 53.3761 10.8104C56.5264 14.4783 58.0716 18.5287 58.1991 19.8863C58.2216 20.0889 58.1991 20.2539 58.1616 20.4039C58.2141 21.8215 58.0341 23.0292 57.8541 24.1843C57.7116 25.1219 57.5615 26.097 57.524 27.2296C57.4865 28.2947 57.6291 29.4348 57.7716 30.6425C58.1241 33.5753 58.5142 36.8831 56.4889 40.2285C56.5189 40.2735 56.5564 40.3185 56.594 40.356C56.6765 40.461 56.7515 40.5585 56.834 40.656C64.6798 28.3172 67.3876 14.0132 64.9273 10.8704C61.717 6.77498 57.1865 4.62975 51.4634 4.50224C49.1982 4.44973 47.173 4.74227 45.6953 5.0498Z" fill="#336791"/>
<path d="M56.1967 21.091C53.864 20.8059 51.1787 20.8659 50.1211 22.3811C48.0584 25.3214 52.0863 32.5372 53.804 35.62C54.2465 36.4151 54.5615 36.9851 54.7116 37.3377C54.8766 37.7352 55.0491 38.0802 55.2366 38.4028C56.4142 35.89 56.1142 33.3472 55.8142 30.872C55.6642 29.6494 55.5141 28.3817 55.5516 27.1591C55.5891 25.9065 55.7542 24.8714 55.9042 23.8737C56.0467 22.9512 56.1817 22.0586 56.1967 21.0835V21.091ZM53.939 23.3112C53.7515 23.5137 53.3464 23.8587 52.7989 23.9338C52.7313 23.9413 52.6563 23.9488 52.5888 23.9488C51.7712 23.9488 51.0812 23.2962 51.0212 22.9136C50.9537 22.4186 51.7562 22.0436 52.5888 21.931C53.4214 21.8185 54.2915 21.9536 54.359 22.4486C54.389 22.6661 54.224 23.0112 53.9315 23.3112H53.939Z" fill="#336791"/>
<path d="M34.5704 47.0312C34.8705 46.6112 34.7805 46.0711 34.6979 45.7936C34.5254 45.1935 34.1054 44.646 33.6703 44.466C33.1303 44.2409 32.8378 44.1209 32.1927 44.8485C31.7576 45.3361 31.4426 45.7336 31.1651 46.0861C29.9575 47.6163 29.4024 48.1414 25.8245 48.8764C25.0819 49.0264 24.6619 49.184 24.4219 49.2965C24.7069 49.4915 25.1945 49.7315 25.742 49.8665C28.3823 50.5266 32.0577 50.5716 34.5779 47.0387L34.5704 47.0312Z" fill="#336791"/>
</svg>
