<svg width="72" height="72" viewBox="0 0 72 72" fill="none" xmlns="http://www.w3.org/2000/svg">
<path d="M70.0425 27.0975C67.7775 17.9775 62.3325 16.065 58.155 16.065H55.14V12.93C55.14 6.9225 50.4 1.77 43.86 0.675C41.1675 0.225 38.355 0 35.505 0L29.085 0.03L29.205 0.3975C28.56 0.48 27.9375 0.5775 27.33 0.6825C19.455 2.07 16.095 5.7375 16.095 12.93V16.065H14.955C8.1975 16.065 2.7975 20.4075 1.1925 27.1275C-0.3975 33.7125 -0.3975 37.935 1.1925 44.5125C2.8575 51.4425 7.4775 55.5825 13.56 55.5825H16.1025V58.7175C16.1025 64.3125 20.0175 68.6625 26.85 70.6725C29.8875 71.565 32.745 72 35.58 72C38.415 72 41.3175 71.565 44.385 70.68C53.7525 67.9725 55.155 62.025 55.155 58.725V55.59H58.17C66.405 55.59 68.805 48.36 69.96 44.895C71.775 39.45 71.805 34.1325 70.0575 27.1125L70.0425 27.0975Z" fill="white"/>
<path d="M35.2801 4.49219C32.7076 4.50719 30.2551 4.72469 28.1026 5.10719C21.7426 6.23219 20.5876 8.57969 20.5876 12.9222V18.6522H35.6176V20.5647H14.9476C10.5826 20.5647 6.75012 23.1897 5.55762 28.1847C4.17762 33.9072 4.11762 37.4847 5.55762 43.4622C6.62262 47.9097 9.18012 51.0822 13.5451 51.0822H18.7126V44.2122C18.7126 39.2547 23.0026 34.8747 28.1026 34.8747H43.1176C47.2951 34.8747 50.6326 31.4322 50.6326 27.2397V12.9297C50.6326 8.85719 47.1976 5.79719 43.1176 5.11469C40.5376 4.68719 37.8601 4.49219 35.2876 4.49969L35.2801 4.49219ZM27.1576 9.10469C28.7101 9.10469 29.9776 10.3947 29.9776 11.9772C29.9776 13.5522 28.7101 14.8347 27.1576 14.8347C25.5976 14.8347 24.3376 13.5597 24.3376 11.9772C24.3376 10.3947 25.5976 9.10469 27.1576 9.10469Z" fill="url(#paint0_linear_2633_2822)"/>
<path d="M52.5137 20.5583V27.2333C52.5137 32.4083 48.1262 36.7658 43.1237 36.7658H28.1087C23.9987 36.7658 20.5938 40.2833 20.5938 44.4008V58.7108C20.5938 62.7833 24.1337 65.1833 28.1087 66.3458C32.8637 67.7483 37.4312 67.9958 43.1237 66.3458C46.9112 65.2508 50.6387 63.0458 50.6387 58.7108V52.9808H35.6237V51.0683H58.1537C62.5187 51.0683 64.1537 48.0233 65.6687 43.4483C67.2362 38.7383 67.1687 34.2083 65.6687 28.1708C64.5887 23.8208 62.5262 20.5508 58.1537 20.5508H52.5063L52.5137 20.5583ZM44.0687 56.8058C45.6287 56.8058 46.8887 58.0808 46.8887 59.6633C46.8887 61.2458 45.6287 62.5358 44.0687 62.5358C42.5087 62.5358 41.2487 61.2458 41.2487 59.6633C41.2487 58.0808 42.5162 56.8058 44.0687 56.8058Z" fill="url(#paint1_linear_2633_2822)"/>
<defs>
<linearGradient id="paint0_linear_2633_2822" x1="1.63452" y1="7.15094" x2="36.3826" y2="36.5148" gradientUnits="userSpaceOnUse">
<stop stop-color="#5A9FD4"/>
<stop offset="1" stop-color="#306998"/>
</linearGradient>
<linearGradient id="paint1_linear_2633_2822" x1="49.1174" y1="55.2629" x2="36.584" y2="37.8634" gradientUnits="userSpaceOnUse">
<stop stop-color="#FFD43B"/>
<stop offset="1" stop-color="#FFE873"/>
</linearGradient>
</defs>
</svg>
