<svg width="72" height="72" viewBox="0 0 72 72" fill="none" xmlns="http://www.w3.org/2000/svg">
<g clip-path="url(#clip0_57931_2809)">
<path d="M49.1009 68.933C45.3991 68.933 41.2826 67.1096 36.8687 63.5174C36.5791 63.2826 36.2896 63.0322 35.9843 62.7739C35.687 63.0322 35.3896 63.2826 35.1078 63.5096C30.6861 67.1096 26.5696 68.933 22.8678 68.933C21.0678 68.933 19.4243 68.5026 17.9687 67.6417C15.3704 66.1391 11.2383 61.9287 13.0383 50.753C13.1009 50.3696 13.1713 49.9704 13.2496 49.5557C4.68 46.5191 0 41.9252 0 36.4548C0 30.9844 4.78957 26.3435 13.2574 23.3383C13.1791 22.9391 13.1087 22.5478 13.0461 22.1487C11.2461 10.973 15.3783 6.76261 18 5.24435C19.4243 4.42261 21.0443 4 22.7974 4C27.54 4 32.3139 7.0287 36 10.1826C37.1113 9.23565 38.3243 8.2887 39.6078 7.44348L39.8661 7.27913C42.7539 5.40087 45.9861 4 49.1948 4C50.9478 4 52.56 4.41478 53.9843 5.24435C58.6643 7.92087 60.3391 14.4243 58.7035 23.2991C66.4357 26.0461 71.1 30.1939 71.8591 35.0148L71.9687 35.1243L72 36.447C72 41.8626 67.2104 46.5583 58.7426 49.5635C58.8209 49.9626 58.8913 50.3539 58.9539 50.753C60.7148 61.9443 56.5904 66.147 53.9765 67.6574C52.5443 68.5026 50.893 68.933 49.093 68.933H49.1009Z" fill="white"/>
<path d="M35.9867 42.286C39.2189 42.286 41.8406 39.6642 41.8406 36.4242C41.8406 33.1842 39.2189 30.5625 35.9867 30.5625C32.7546 30.5625 30.1328 33.1842 30.1328 36.4242C30.1328 39.6642 32.7546 42.286 35.9867 42.286Z" fill="#61DAFB"/>
<path d="M68.8406 36.4221C68.8406 31.8204 63.4406 27.8212 55.0433 25.4186C57.1563 16.9273 56.4128 10.2439 52.4137 7.95864C48.4146 5.64212 42.2711 8.35777 35.9867 14.4152C29.7024 8.32646 23.5589 5.64212 19.5598 7.95864C16.2493 9.87603 15.0206 14.736 16.1319 21.6465C16.3354 22.8752 16.6172 24.1352 16.9302 25.4499C8.53281 27.8526 3.13281 31.8517 3.13281 36.4534C3.13281 41.0552 8.53281 45.0308 16.9302 47.4569C16.6172 48.7404 16.3276 50.0317 16.1319 51.2604C15.0206 58.1786 16.2493 63.0386 19.5598 64.9482C20.5302 65.5195 21.6415 65.8091 22.8702 65.8091C25.7815 65.8091 29.2954 64.2047 33.1302 61.0899C34.0693 60.3152 35.0476 59.4308 35.9867 58.5152C36.9259 59.4308 37.9041 60.3152 38.8433 61.0899C42.6702 64.2047 46.1841 65.8091 49.1033 65.8091C50.3319 65.8091 51.4433 65.5195 52.4137 64.9482C55.7241 63.0308 56.9528 58.1708 55.8728 51.2604C55.6693 50.0317 55.3876 48.7717 55.0746 47.4569C63.472 45.0543 68.8719 41.0552 68.8719 36.4534L68.8406 36.4221ZM50.9893 10.4082C53.5641 11.8952 54.1354 17.3265 52.2728 24.6986C49.5885 24.0726 46.6459 23.6108 43.5311 23.3291C41.7311 20.7856 39.845 18.4691 37.9902 16.4421C42.3337 12.2395 46.3641 9.95429 49.1346 9.95429C49.8467 9.95429 50.4806 10.0952 51.0206 10.4082H50.9893ZM45.1589 41.7126C44.1337 43.4578 43.0772 45.1717 41.9893 46.7682C40.0719 46.9091 38.0763 46.9952 36.018 46.9952C33.9598 46.9952 31.9641 46.9091 30.0467 46.7682C28.9589 45.1639 27.8789 43.4499 26.8772 41.7126C25.8519 39.9439 24.9363 38.1986 24.0754 36.4221C24.9363 34.6534 25.8441 32.9082 26.8772 31.1317C27.9024 29.3317 28.9902 27.6412 30.0467 26.076C31.9641 25.9352 33.9598 25.8491 36.018 25.8491C38.0763 25.8491 40.0719 25.9352 41.9893 26.076C43.0772 27.6491 44.1337 29.3317 45.1589 31.1317C46.1606 32.8769 47.0998 34.6456 47.9606 36.4221C47.1311 38.1673 46.2154 39.9126 45.1589 41.7126ZM49.4476 39.7639C50.2459 41.6813 50.9346 43.536 51.5059 45.3673C49.6746 45.7665 47.7024 46.1421 45.6206 46.3926C46.3093 45.336 46.9667 44.2482 47.6241 43.1369C48.2815 42.0256 48.8841 40.8752 49.4554 39.7639H49.4476ZM35.9867 54.3439C34.7032 52.943 33.4119 51.4013 32.1598 49.7421C33.4198 49.7969 34.6719 49.8282 35.9867 49.8282C37.3015 49.8282 38.5615 49.7969 39.8137 49.7421C38.5537 51.4013 37.2702 52.9117 35.9867 54.3439ZM26.3606 46.4004C24.2789 46.1421 22.3067 45.7978 20.4754 45.3752C21.0467 43.5439 21.7354 41.6891 22.5337 39.7717C23.105 40.883 23.7076 42.0334 24.365 43.1447C25.0224 44.256 25.6798 45.3439 26.3685 46.4004H26.3606ZM22.5337 33.0491C21.7354 31.1317 21.0467 29.2769 20.4754 27.4456C22.3067 27.0465 24.2789 26.6708 26.3606 26.4204C25.6719 27.4769 25.0146 28.5647 24.3572 29.676C23.6998 30.7873 23.0972 31.9065 22.5259 33.0491H22.5337ZM35.9867 18.4691C37.2467 19.8386 38.5302 21.3882 39.8137 23.0708C38.5537 23.016 37.3015 22.9847 35.9867 22.9847C34.6719 22.9847 33.4119 23.016 32.1598 23.0708C33.4432 21.3882 34.7032 19.8386 35.9867 18.4691ZM47.6163 29.7073C46.9589 28.596 46.3015 27.5082 45.6128 26.4517C47.6946 26.7099 49.6667 27.0543 51.498 27.4769C50.958 29.2769 50.2693 31.1317 49.4398 33.0804C48.8685 31.9691 48.2424 30.8186 47.6085 29.7073H47.6163ZM18.9337 21.1847C18.0493 15.6126 18.7928 11.6917 20.9919 10.4395C21.5319 10.1265 22.1659 9.9856 22.878 9.9856C25.6485 9.9856 29.6789 12.2708 34.0224 16.4734C32.1363 18.5004 30.2815 20.8169 28.4815 23.3604C25.3667 23.6499 22.4241 24.1039 19.7398 24.7299C19.4267 23.5326 19.1685 22.3273 18.9963 21.216L18.9415 21.1847H18.9337ZM5.98933 36.4221C5.98933 33.4482 10.3876 30.2473 17.705 28.1656C18.5346 30.8265 19.6224 33.5969 20.9059 36.4221C19.6224 39.2239 18.5346 41.9943 17.705 44.6786C10.4189 42.5891 5.98933 39.4195 5.98933 36.4221ZM31.3302 58.8047C26.9554 62.3499 23.1911 63.6647 20.9841 62.4047C18.785 61.1447 18.0415 57.2004 18.9259 51.6595C19.098 50.5169 19.3798 49.343 19.6693 48.1456C22.3537 48.7717 25.2963 49.2334 28.4111 49.5152C30.2111 52.0273 32.0659 54.3752 33.9519 56.4334C33.0676 57.2943 32.1833 58.116 31.2989 58.836L31.3302 58.8047ZM53.0476 51.6595C53.9319 57.2317 53.1885 61.1526 50.9893 62.4047C48.7902 63.6647 45.018 62.3499 40.6432 58.8047C39.7589 58.0926 38.8746 57.263 37.9824 56.4021C39.8998 54.3439 41.7546 52.0273 43.5233 49.5152C46.638 49.2256 49.5806 48.7717 52.265 48.1456C52.578 49.343 52.8363 50.5482 53.0085 51.6595H53.0398H53.0476ZM54.2763 44.6552C53.4467 41.9943 52.3589 39.2239 51.0754 36.3986C52.3902 33.5421 53.4467 30.7717 54.2763 28.1421C61.5937 30.2317 65.9919 33.4013 65.9919 36.3986C65.9919 39.396 61.5937 42.5734 54.2763 44.6552Z" fill="#61DAFB"/>
</g>
<defs>
<clipPath id="clip0_57931_2809">
<rect width="72" height="72" fill="white"/>
</clipPath>
</defs>
</svg>
