<svg width="72" height="72" viewBox="0 0 72 72" fill="none" xmlns="http://www.w3.org/2000/svg">
<g clip-path="url(#clip0_2633_3095)">
<path d="M39.717 71.1115C35.6751 71.1115 31.5732 70.4216 27.5314 69.0493C26.5415 68.7268 15.3457 64.8724 8.26684 54.3141C7.04453 52.4919 6.00219 50.5947 5.13983 48.66C5.06484 48.54 4.99735 48.4125 4.93736 48.2775C4.83987 48.0675 4.58491 47.4901 4.15748 46.2678C3.34011 45.3455 2.39525 44.1907 1.57038 42.8334C1.54039 42.7884 1.51789 42.7434 1.48789 42.6984C1.03046 41.8735 0.333073 40.6212 0.0856112 39.0614C-0.214342 37.2242 0.280581 35.297 1.4654 33.6248C1.56288 33.4823 1.66037 33.3473 1.76535 33.2199C1.68286 32.8149 1.4654 32.2075 1.30042 31.7426C0.588033 29.7479 -0.604282 26.4034 1.35291 22.9464C1.36791 22.9239 1.37541 22.9015 1.39041 22.879C2.21528 21.4767 3.30261 20.2469 4.53242 19.3245C4.76489 19.1445 5.3123 18.7171 5.52977 18.4996C5.55226 18.4021 5.58226 18.2147 5.59726 17.8697C5.61225 17.5398 5.61975 17.2473 5.62725 16.9549C5.64225 16.3475 5.65725 15.6576 5.73973 14.9302C5.9647 12.4406 6.99204 10.4459 8.77676 8.99861C10.179 7.88128 11.8663 7.16889 13.8235 6.83894C14.3559 6.74895 14.8583 6.70396 15.2633 6.67397C15.5332 6.65147 15.9007 6.62147 16.0131 6.59148C16.3956 6.449 16.8155 6.14155 17.213 5.70662C17.4604 5.42916 17.7154 5.1292 17.9703 4.82175C18.3978 4.31183 18.8777 3.73442 19.4401 3.14951C21.3898 1.11733 24.1194 0 27.1114 0C29.7435 0 32.4731 0.847369 34.7827 2.39213C34.9702 2.51211 35.1577 2.65459 35.3376 2.79707C42.0866 3.02203 48.5206 5.36917 54.4822 9.77099C54.8346 10.0259 56.7768 11.4432 58.794 13.4754C59.7089 14.3903 60.5187 15.3051 61.2161 16.22C62.161 16.3175 63.0758 16.7149 63.8107 17.3973C65.7829 19.2195 68.0851 22.759 68.7375 27.4682C70.1472 27.9782 71.2346 29.163 71.5945 30.6702C71.6695 31.0002 73.1318 37.4492 69.9973 44.6631C71.1071 45.7654 71.5795 47.3927 71.1821 48.9524C71.0846 49.3349 68.6775 58.4234 57.6617 65.9973C56.7918 66.6047 50.0204 71.119 39.7245 71.119L39.717 71.1115ZM31.1833 45.0155C31.4158 45.293 31.9257 45.8254 31.9332 45.8329C32.788 46.7478 33.7104 47.6176 34.7077 48.435C36.1025 49.5973 37.5348 50.5647 38.9896 51.352C39.7845 49.9498 41.2842 49.0799 42.8965 49.0799C42.9715 49.0799 43.039 49.0799 43.1139 49.0799C43.3914 49.0799 44.4712 49.0499 46.046 48.6825C46.016 48.5625 45.9935 48.4425 45.9785 48.315C45.686 46.4253 46.6309 44.5581 48.3181 43.6582C48.4381 43.5907 52.5175 41.2436 55.5545 34.8471C55.5695 34.8096 55.592 34.7721 55.6145 34.7271C55.7495 34.4572 55.907 34.1047 56.0719 33.6923C54.9996 33.8797 53.8373 33.9772 52.585 33.9772C50.8977 33.9772 49.008 33.8048 46.9533 33.4598C46.6384 33.4073 40.8643 32.3425 33.7629 29.133C31.7907 29.8229 28.0113 31.6076 26.5715 35.4845C25.4467 38.514 25.7091 41.3711 26.2266 43.4108C26.669 43.2758 27.1189 43.2083 27.5689 43.2083C28.7387 43.2083 29.8935 43.6657 30.7484 44.5281C30.8908 44.6706 31.0408 44.843 31.1758 45.008L31.1833 45.0155Z" fill="white"/>
<path d="M8.11771 43.8935C6.82791 39.8666 6.45297 35.6222 7.19535 31.2504C7.5178 29.4357 8.01273 27.696 8.56014 25.9337C8.56014 25.9337 11.9871 14.678 23.5878 9.54128C23.5878 9.54128 27.5847 7.42661 33.5988 7.28413C33.5988 7.28413 32.7814 6.48926 32.2565 6.14431C29.4219 4.2546 25.2001 3.6322 22.643 6.29429C21.8706 7.08916 21.2257 7.95903 20.5058 8.75391C19.6884 9.64627 18.6911 10.3962 17.5512 10.8161C16.5539 11.191 15.5641 11.116 14.5442 11.2885C13.5019 11.461 12.4295 11.8359 11.5897 12.5033C10.6673 13.2457 10.2999 14.2431 10.1949 15.3829C10.0974 16.2752 10.1199 17.1976 10.0674 18.09C9.93993 20.722 9.10006 21.4719 7.21035 22.9342C6.41547 23.5341 5.74808 24.329 5.24565 25.1689C3.75339 27.801 6.13802 30.538 6.2655 33.1926C6.28799 33.74 6.243 34.2874 6.04053 34.8049C5.83806 35.3748 5.44062 35.7497 5.11817 36.2221C4.66824 36.8446 4.37579 37.5869 4.49577 38.3593C4.61575 39.1317 5.02069 39.8516 5.38813 40.519C6.10802 41.7113 7.00038 42.7761 7.94524 43.796C7.99773 43.796 8.04272 43.8485 8.09521 43.8935" fill="#E32286"/>
<path d="M55.522 53.4323C61.2361 50.9502 63.6732 46.6534 63.6732 46.6534C69.0124 39.372 67.1977 31.7007 67.1977 31.7007C63.7932 39.102 60.6887 41.1417 60.6887 41.1417C69.0574 28.4012 60.7412 20.6999 60.7412 20.6999C64.1457 27.9513 59.6239 36.7999 59.6239 36.7999C55.822 44.8011 50.4303 47.6582 50.4303 47.6582C56.4444 48.7755 60.8612 44.7262 60.8612 44.7262C52.2375 54.0397 42.9015 53.5973 42.9015 53.5973C46.8233 57.9916 52.7174 57.6242 52.7174 57.6242C45.0161 59.4389 37.7873 56.8818 31.8482 51.9325C30.7308 51.0102 29.6585 50.0203 28.6687 48.948C28.6687 48.948 27.7763 48.0032 27.6038 47.7557L27.5813 47.7332C27.4538 52.33 32.2531 56.6043 32.2531 56.6043C26.239 54.1222 23.487 48.7305 23.487 48.7305C23.487 48.7305 19.4376 41.8241 22.3696 33.9503C25.3017 26.0765 34.1728 24.3893 34.1728 24.3893C41.4992 27.9438 47.7082 29.0611 47.7082 29.0611C60.8012 31.2507 60.0513 24.8392 60.0513 24.8392C60.1788 19.3276 51.8551 13.4635 51.8551 13.4635C37.0149 2.42521 23.5994 9.53411 23.5994 9.53411C11.9987 14.6783 8.57178 25.9266 8.57178 25.9266C8.02436 27.6888 7.52944 29.4285 7.20699 31.2432C5.93969 38.6221 7.85189 45.6035 11.9987 51.8126C18.4552 61.4486 28.9386 64.7781 28.9386 64.7781C44.4687 70.0422 55.0721 62.2959 55.0721 62.2959C64.8356 55.592 66.8003 47.8382 66.8003 47.8382C58.9265 54.0022 55.522 53.4248 55.522 53.4248V53.4323ZM43.4039 17.1829C44.1463 17.1829 44.7462 17.7828 44.7462 18.5252C44.7462 19.2676 44.1463 19.8675 43.4039 19.8675C42.6615 19.8675 42.0616 19.2676 42.0616 18.5252C42.0616 17.7828 42.6615 17.1829 43.4039 17.1829Z" fill="url(#paint0_linear_2633_3095)"/>
<path d="M60.0134 24.7844C60.1409 19.2728 51.8172 13.4087 51.8172 13.4087C36.9845 2.42289 23.5691 9.53179 23.5691 9.53179C11.9684 14.676 8.54143 25.9242 8.54143 25.9242C7.87403 27.8365 7.27412 30.7685 7.27412 30.7685C6.55423 34.4429 6.87668 37.8474 6.87668 37.8474C7.17664 41.1019 7.89653 43.2916 7.89653 43.2916C8.63891 45.6237 8.99136 46.3436 8.99136 46.3436C8.96886 46.2686 8.84138 45.7212 8.84138 45.7212C8.84138 45.7212 7.79904 40.7045 8.76639 35.8827C8.76639 35.8827 9.61376 30.866 13.0407 26.9891C13.0407 26.9891 18.6049 19.0628 28.9683 22.1673C28.9683 22.1673 31.2029 22.9622 31.9753 23.3596C32.7477 23.7346 34.09 24.3045 34.09 24.3045C41.4163 27.8589 47.6254 28.9763 47.6254 28.9763C60.7633 31.1884 60.0209 24.7769 60.0209 24.7769L60.0134 24.7844ZM43.396 19.8877C42.6536 19.8877 42.0537 19.2878 42.0537 18.5454C42.0537 17.803 42.6536 17.2031 43.396 17.2031C44.1384 17.2031 44.7383 17.803 44.7383 18.5454C44.7383 19.2878 44.1384 19.8877 43.396 19.8877Z" fill="url(#paint1_radial_2633_3095)"/>
<path d="M34.9031 14.7981L26.4294 12.166C26.3769 12.166 26.1295 12.0386 25.687 12.166C25.687 12.166 20.6928 13.4333 21.5627 16.1629C21.5627 16.1629 22.0876 17.8801 23.4974 19.5449L32.8109 19.095L34.8956 14.7981H34.9031Z" fill="url(#paint2_linear_2633_3095)"/>
</g>
<defs>
<linearGradient id="paint0_linear_2633_3095" x1="15.5355" y1="62.0173" x2="46.4475" y2="29.1394" gradientUnits="userSpaceOnUse">
<stop stop-color="#E01D84"/>
<stop offset="0.4" stop-color="#DF1D85"/>
<stop offset="0.77" stop-color="#932C87"/>
<stop offset="1" stop-color="#5D2F88"/>
</linearGradient>
<radialGradient id="paint1_radial_2633_3095" cx="0" cy="0" r="1" gradientUnits="userSpaceOnUse" gradientTransform="translate(53.5763 19.1986) rotate(0.14) scale(30.1613 25.2485)">
<stop stop-color="#E01D84"/>
<stop offset="0.14" stop-color="#DE1E85"/>
<stop offset="0.28" stop-color="#D62085"/>
<stop offset="0.43" stop-color="#C92386"/>
<stop offset="0.59" stop-color="#B72786"/>
<stop offset="0.74" stop-color="#9D2B87"/>
<stop offset="0.89" stop-color="#7C2E88"/>
<stop offset="1" stop-color="#5D2F88"/>
</radialGradient>
<linearGradient id="paint2_linear_2633_3095" x1="22.92" y1="15.988" x2="36.3423" y2="15.988" gradientUnits="userSpaceOnUse">
<stop stop-color="#E01D84"/>
<stop offset="0.24" stop-color="#DA1E85"/>
<stop offset="0.66" stop-color="#C72085"/>
<stop offset="1" stop-color="#B52284"/>
</linearGradient>
<clipPath id="clip0_2633_3095">
<rect width="72" height="72" fill="white"/>
</clipPath>
</defs>
</svg>
