<svg width="72" height="72" viewBox="0 0 72 72" fill="none" xmlns="http://www.w3.org/2000/svg">
<path d="M37.0869 71.9925C23.2433 71.9925 7.9224 67.1855 7.0225 56.6416L7 56.1841V15.8908C7 4.97198 22.1859 0 36.2919 0C50.398 0 65.5839 4.97198 65.5839 15.8908V29.082C65.6064 29.4419 65.6064 29.8094 65.5839 30.1694V42.4831C65.6064 42.843 65.6064 43.2105 65.5839 43.5705V55.8842C65.7339 58.8089 64.624 61.7186 62.4492 64.0883C57.8972 69.0378 48.4182 72 37.0944 72L37.0869 71.9925ZM25.3281 57.429C28.1853 58.2839 32.1074 58.9739 37.0869 58.9739C42.0663 58.9739 45.5385 58.3289 48.1857 57.5415C44.7811 58.2314 41.0315 58.5914 37.0869 58.5914C33.1423 58.5914 28.9727 58.1864 25.3281 57.429ZM25.3281 44.0279C28.1853 44.8828 32.1074 45.5728 37.0944 45.5728C42.0813 45.5728 45.546 44.9278 48.1932 44.1404C44.7886 44.8303 41.039 45.1903 37.0944 45.1903C33.1498 45.1903 28.9802 44.7853 25.3281 44.0279ZM26.6555 30.9943C29.3627 31.6692 32.8423 32.1791 37.0869 32.1791C42.9888 32.1791 47.2783 31.1892 49.918 30.1544C45.8085 31.2117 41.1364 31.7892 36.2844 31.7892C32.9473 31.7892 29.6926 31.5192 26.6555 31.0018V30.9943ZM21.2935 15.8908C23.6708 17.1582 28.6277 18.763 36.2919 18.763C43.9562 18.763 48.9056 17.1582 51.2829 15.8908C48.9056 14.6235 43.9487 13.0186 36.2919 13.0186C28.6352 13.0186 23.6783 14.6235 21.2935 15.8908Z" fill="white"/>
<path d="M61.0773 42.611V30.0348C61.0998 29.7649 61.0998 29.4874 61.0773 29.2174V15.8913C61.0773 8.49708 48.3062 4.5 36.2849 4.5C24.2637 4.5 11.5 8.48958 11.5 15.8913V56.2596C12.1299 63.5563 25.1561 67.4934 37.0948 67.4934C47.0388 67.4934 55.4829 65.0187 59.135 61.0366C60.5299 59.5143 61.2048 57.7819 61.0773 56.0121V43.4359C61.0998 43.166 61.0998 42.8885 61.0773 42.6185V42.611ZM36.2924 8.51958C49.1611 8.51958 57.0653 12.8091 57.0653 15.8913C57.0653 18.9735 49.1611 23.263 36.2924 23.263C23.4238 23.263 15.5196 18.9735 15.5196 15.8913C15.5196 12.8091 23.4238 8.51958 36.2924 8.51958ZM15.5196 35.4493C20.4091 38.8839 29.0032 40.6987 37.0873 40.6987C45.1715 40.6987 52.7757 38.9439 57.0578 36.0117V43.2635C56.9903 43.8034 56.6978 44.3508 56.1728 44.9283C53.8181 47.493 47.0013 50.0802 37.0948 50.0802C24.2187 50.0802 15.9095 45.7457 15.5271 42.596V35.4568L15.5196 35.4493ZM56.1728 31.5197C53.8181 34.0844 47.0013 36.6716 37.0948 36.6716C24.2187 36.6716 15.9095 32.3371 15.5271 29.1874V22.3181C20.2441 25.5728 28.4332 27.2826 36.2999 27.2826C44.1666 27.2826 52.3482 25.5728 57.0728 22.3181V29.8624C57.0053 30.4023 56.7128 30.9497 56.1878 31.5272L56.1728 31.5197ZM56.1728 58.3219C53.8181 60.8866 47.0013 63.4739 37.0948 63.4739C24.2187 63.4739 15.9095 59.1393 15.5271 55.9896V48.8504C20.4166 52.285 29.0107 54.0998 37.0948 54.0998C45.179 54.0998 52.7832 52.345 57.0653 49.4128V56.2671C57.1327 56.9345 56.8403 57.6095 56.1803 58.3294L56.1728 58.3219Z" fill="#DF6C20"/>
</svg>
