<svg width="72" height="72" viewBox="0 0 72 72" fill="none" xmlns="http://www.w3.org/2000/svg">
<g clip-path="url(#clip0_81912_1051)">
<path d="M38.7223 68.168C35.1218 68.168 32.2557 65.3769 32.202 61.8124L31.996 48.2302H13.4739C9.99879 48.2302 6.9088 46.3013 5.40411 43.1991C3.89046 40.0969 4.30246 36.4969 6.45202 33.7946L28.2073 6.61241C29.4523 5.05686 31.2973 4.16797 33.2767 4.16797C36.8772 4.16797 39.7433 6.95908 39.7971 10.5235L39.8866 24.1057H58.5251C61.9913 24.1057 65.0902 26.0346 66.5949 29.1369C68.1085 32.2391 67.6965 35.8391 65.547 38.5413L43.7917 65.7324C42.5467 67.288 40.7017 68.1769 38.7223 68.1769V68.168Z" fill="white"/>
<path d="M40.6347 63.2344C39.1927 65.0388 36.2729 64.0521 36.2371 61.7499L35.7266 28.1055H58.5208C62.6498 28.1055 64.9516 32.8344 62.3811 36.0432L40.6258 63.2344H40.6347Z" fill="url(#paint0_linear_81912_1051)"/>
<path d="M31.359 9.10049C32.8009 7.29605 35.7208 8.28271 35.7566 10.5849L35.9805 44.2294H13.4728C9.34388 44.2294 7.04206 39.5005 9.61258 36.2916L31.359 9.10049Z" fill="#3ECF8E"/>
</g>
<defs>
<linearGradient id="paint0_linear_81912_1051" x1="33.8905" y1="39.901" x2="54.104" y2="48.4369" gradientUnits="userSpaceOnUse">
<stop stop-color="#249361"/>
<stop offset="1" stop-color="#3ECF8E"/>
</linearGradient>
<clipPath id="clip0_81912_1051">
<rect width="63" height="64" fill="white" transform="translate(4.5 4.16797)"/>
</clipPath>
</defs>
</svg>
