<svg class="svg-icon" style="width: 1em; height: 1em;vertical-align: middle;fill: #F8F9FA;overflow: hidden;" viewBox="0 0 1024 1024" version="1.1" xmlns="http://www.w3.org/2000/svg"><path d="M204.8 128C162.133333 128 128 162.133333 128 204.8v614.4c0 42.666667 34.133333 76.8 76.8 76.8h614.4c42.666667 0 76.8-34.133333 76.8-76.8V204.8c0-42.666667-34.133333-76.8-76.8-76.8m-133.546667 85.333333h87.04c5.12 0 9.386667 1.706667 11.093334 5.546667 2.56 3.84 2.56 8.533333 0 13.226667l-190.72 337.92 121.6 221.866666c2.56 4.693333 2.56 9.386667 0 13.226667-2.133333 3.413333-5.973333 5.546667-10.666667 5.546667h-86.613333c-13.226667 0-20.053333-8.96-23.893334-16.64l-122.453333-224.426667 191.573333-339.626667c4.693333-8.533333 10.24-16.64 23.04-16.64M302.506667 331.093333H388.266667c13.226667 0 20.053333 8.533333 24.32 16.64l59.306666 103.253334c-3.84 5.973333-93.013333 164.266667-93.013333 164.266666-4.693333 8.106667-10.666667 16.64-23.893333 16.64H268.8c-5.12 0-8.96-2.133333-11.093333-5.973333a17.621333 17.621333 0 0 1 0-13.226667l91.306666-161.706666L290.986667 349.866667c-2.133333-4.693333-2.986667-8.533333-0.426667-13.226667 2.133333-3.413333 6.4-5.546667 11.946667-5.546667z" fill="" /></svg>